<svg width="1440" height="636" viewBox="0 0 1440 636" fill="none" xmlns="http://www.w3.org/2000/svg">
<g clip-path="url(#clip0)">
<path d="M1440 0H0V636H1440V0Z" fill="#0A0808"/>
<path d="M0 480.533L30 485.009C60 489.602 120 498.553 180 507.622C240 516.691 300 525.642 360 528.587C420 531.531 480 528.469 540 521.167C600 513.864 660 502.558 720 496.669C780 490.78 840 490.309 900 492.547C960 494.667 1020 499.378 1080 508.211C1140 517.044 1200 530 1260 528.822C1320 527.644 1380 512.333 1410 504.678L1440 497.022V637.178H1410C1380 637.178 1320 637.178 1260 637.178C1200 637.178 1140 637.178 1080 637.178C1020 637.178 960 637.178 900 637.178C840 637.178 780 637.178 720 637.178C660 637.178 600 637.178 540 637.178C480 637.178 420 637.178 360 637.178C300 637.178 240 637.178 180 637.178C120 637.178 60 637.178 30 637.178H0V480.533Z" fill="#FA7C14"/>
<path d="M0 553.556L30 557.442C60 561.447 120 569.22 180 568.867C240 568.513 300 559.798 360 557.913C420 555.911 480 560.622 540 554.733C600 548.844 660 532.356 720 531.767C780 531.178 840 546.489 900 554.969C960 563.331 1020 564.98 1080 565.333C1140 565.687 1200 564.98 1260 566.747C1320 568.513 1380 572.753 1410 574.991L1440 577.111V637.178H1410C1380 637.178 1320 637.178 1260 637.178C1200 637.178 1140 637.178 1080 637.178C1020 637.178 960 637.178 900 637.178C840 637.178 780 637.178 720 637.178C660 637.178 600 637.178 540 637.178C480 637.178 420 637.178 360 637.178C300 637.178 240 637.178 180 637.178C120 637.178 60 637.178 30 637.178H0V553.556Z" fill="#F69C30"/>
<path d="M0 594.778L30 594.424C60 593.953 120 593.247 180 588.889C240 584.531 300 576.758 360 572.989C420 569.22 480 569.691 540 569.456C600 569.22 660 568.513 720 570.044C780 571.576 840 575.58 900 578.878C960 582.176 1020 585.002 1080 584.767C1140 584.531 1200 581.469 1260 578.524C1320 575.58 1380 572.753 1410 571.458L1440 570.044V637.178H1410C1380 637.178 1320 637.178 1260 637.178C1200 637.178 1140 637.178 1080 637.178C1020 637.178 960 637.178 900 637.178C840 637.178 780 637.178 720 637.178C660 637.178 600 637.178 540 637.178C480 637.178 420 637.178 360 637.178C300 637.178 240 637.178 180 637.178C120 637.178 60 637.178 30 637.178H0V594.778Z" fill="#F3B750"/>
</g>
<defs>
<clipPath id="clip0">
<rect width="1440" height="636" fill="white"/>
</clipPath>
</defs>
</svg>
